<?xml version="1.0" encoding="utf-8"?>
<!-- Generator: Adobe Illustrator 28.2.0, SVG Export Plug-In . SVG Version: 6.00 Build 0)  -->
<svg version="1.1" id="Layer_1" xmlns="http://www.w3.org/2000/svg" xmlns:xlink="http://www.w3.org/1999/xlink" x="0px" y="0px"
	 viewBox="0 0 1852.9 377.9" style="enable-background:new 0 0 1852.9 377.9;" xml:space="preserve">
<style type="text/css">
	.st0{fill:#241F20;}
</style>
<g>
	<path class="st0" d="M0,362c27.7-2.7,39.4-16,55.3-54.8L175,11.4h6.9L301.1,297c14.4,34,25,63.3,62.8,64.9v8H236.2v-8
		c23.4-1.1,36.7-6.4,36.7-23.9c0-11.7-8.5-31.4-12.8-42L241,250.2H99l-20.7,51.6c-5.3,13.3-10.6,27.7-10.6,37.8
		c0,18.6,19.2,20.7,39.9,22.3v8H0V362z M105.3,235.3h129.3L168.1,74.1L105.3,235.3z"/>
	<path class="st0" d="M588.4,342.3l2.7,7.4L523,377.4h-8.5v-50c-22.9,25.5-49.5,50-84.1,50c-36.7,0-57.5-27.1-57.5-72.9V181.6
		c0-32.5-4.3-40.4-39.4-41.5v-8h75.5v170.8c0,33.5,12.8,48.9,39.9,48.9c21.3,0,51.1-23.4,65.4-38.3V181.6c0-32.5-4.3-40.4-39.4-41.5
		v-8h75.5v182.5C550.6,349.7,561.3,350.2,588.4,342.3z"/>
	<path class="st0" d="M676.2,138.5c-23.9,0-42.6,14.4-42.6,35.6c0,63.8,134.6,45.8,134.6,133.5c0,45.2-38.3,70.2-75.5,70.2
		c-31.9,0-47.3-13.3-58-13.3c-5.3,0-8.5,4.8-11.7,9h-7.4l-24.5-84.6l8-2.7c30.9,48.4,58,77.1,92.6,77.1c31.9,0,43.1-22.3,43.1-41
		c0-69.2-129.3-48.4-129.3-133.5c0-39.9,31.9-64.4,71.8-64.4c26.6,0,36.7,9.6,47.3,9.6c5.3,0,8-5.9,9.6-9.6h7.4L765,205l-8,2.7
		C729.9,164,706.5,138.5,676.2,138.5z"/>
	<path class="st0" d="M906,146.5h-55.9v156.9c0,42.6,10.1,48.4,23.4,48.4c11.2,0,19.7-10.1,26.6-25h8.5
		c-10.1,29.3-25.5,50.5-50.5,50.5c-26.6,0-44.2-15.4-44.2-58V146.5h-39.4v-8c37.8-12.8,54.8-32.5,67.6-79.3h8v72.9H906V146.5z"/>
	<path class="st0" d="M1148,362v8h-109.6v-8c28.2-0.5,37.8-7.4,37.8-35.6v-116c0-45.2-14.9-58.5-38.8-58.5
		c-23.9,0-48.4,20.2-66,38.3v136.2c0,28.2,9.6,35.1,37.8,35.6v8H898v-8c28.2-0.5,37.2-7.4,37.2-35.6V64c0-23.9-6.9-31.9-20.2-31.9
		c-5.3,0-13.3,2.1-18.6,4.8l-3.2-8l70.2-28.2h8v175.6c29.3-33,54.3-51.6,84.1-51.6c37.2,0,56.9,22.9,56.9,76.1v125.6
		C1112.4,354.5,1121.4,361.4,1148,362z"/>
	<path class="st0" d="M1265.1,342.8c37.2,0,61.7-21.8,74.5-63.3l7.4,2.7c-8.5,50.5-41.5,95.2-92,95.2
		c-58.5,0-102.7-50.5-102.7-122.4c0-77.1,42.6-130.3,106.4-130.3c53.2,0,89.4,41.5,89.4,97.4h-164.4
		C1183.7,301.8,1219.9,342.8,1265.1,342.8z M1303.4,207.7c-0.5-42.6-20.7-67.6-55.3-67.6c-31.9,0-61.7,27.7-63.8,67.6H1303.4z"/>
	<path class="st0" d="M1482.7,146.5h-55.9v156.9c0,42.6,10.1,48.4,23.4,48.4c11.2,0,19.7-10.1,26.6-25h8.5
		c-10.1,29.3-25.5,50.5-50.5,50.5c-26.6,0-44.2-15.4-44.2-58V146.5h-39.4v-8c37.8-12.8,54.8-32.5,67.6-79.3h8v72.9h55.9V146.5z"/>
	<path class="st0" d="M1467.2,132.1h56.9l18.1-7.4h8.5v201.6c0,28.2,9,35.1,37.2,35.6v8h-110.7v-8c28.2-0.5,37.2-7.4,37.2-35.6
		V185.9c0-31.9-7.4-39.4-34-39.4h-13.3V132.1z M1530,25.7c14.9,0,26.6,11.7,26.6,26.6c0,14.9-11.7,26.6-26.6,26.6
		c-14.9,0-26.6-11.7-26.6-26.6C1503.4,37.4,1515.1,25.7,1530,25.7z"/>
	<path class="st0" d="M1759.3,201.8c-13.3,0-23.9-9.6-26.1-28.2c-2.1-24.5-15.4-33.5-37.8-33.5c-42.6,0-68.1,36.7-68.1,89.9
		c0,70.2,34.6,112.8,78.7,112.8c38.8,0,62.2-27.1,75-67l7.4,2.7c-8,53.2-42,99-96.8,99c-55.9,0-98.4-49.5-98.4-127.7
		c0-75.5,47.9-125,109.6-125c42.6,0,78.2,26.1,78.2,52.7C1781.1,190.6,1772.6,201.8,1759.3,201.8z"/>
	<path class="st0" d="M1852.9,350.2c0,14.9-12.2,27.1-27.1,27.1c-14.9,0-27.1-12.2-27.1-27.1c0-14.9,12.2-27.1,27.1-27.1
		C1840.7,323.1,1852.9,335.4,1852.9,350.2z"/>
</g>
</svg>
