<?xml version="1.0" encoding="utf-8"?>
<!-- Generator: Adobe Illustrator 28.2.0, SVG Export Plug-In . SVG Version: 6.00 Build 0)  -->
<svg version="1.1" id="Layer_1" xmlns="http://www.w3.org/2000/svg" xmlns:xlink="http://www.w3.org/1999/xlink" x="0px" y="0px"
	 viewBox="0 0 1852.9 370.7" style="enable-background:new 0 0 1852.9 370.7;" xml:space="preserve">
<style type="text/css">
	.st0{fill:#241F20;}
</style>
<g>
	<path class="st0" d="M25,353.3c27-2.6,38.3-15.6,53.8-53.3L195.3,12.1h6.7L318,290c14,33.1,24.3,61.6,61.1,63.1v7.8H254.8v-7.8
		c22.8-1.1,35.7-6.2,35.7-23.3c0-11.4-8.3-30.6-12.5-40.9l-18.6-44.6H121.3l-20.1,50.2c-5.2,12.9-10.3,27-10.3,36.8
		c0,18.1,18.7,20.1,38.8,21.7v7.8H25V353.3z M127.5,230h125.8L188.6,73.1L127.5,230z"/>
	<path class="st0" d="M597.5,334.1l2.6,7.2l-66.3,27h-8.3v-48.7c-22.3,24.8-48.2,48.7-81.8,48.7c-35.7,0-55.9-26.4-55.9-70.9V177.7
		c0-31.6-4.2-39.3-38.3-40.4v-7.8H423v166.2c0,32.6,12.5,47.6,38.8,47.6c20.7,0,49.7-22.8,63.6-37.3V177.7
		c0-31.6-4.2-39.3-38.3-40.4v-7.8h73.5v177.6C560.7,341.3,571.2,341.8,597.5,334.1z"/>
	<path class="st0" d="M683,135.8c-23.3,0-41.5,14-41.5,34.6c0,62.1,131,44.6,131,129.9c0,44-37.3,68.3-73.5,68.3
		c-31,0-46-12.9-56.4-12.9c-5.2,0-8.3,4.7-11.4,8.8H624l-23.8-82.3l7.8-2.6c30.1,47.1,56.4,75,90.1,75c31,0,41.9-21.7,41.9-39.9
		c0-67.3-125.8-47.1-125.8-129.9c0-38.8,31-62.7,69.9-62.7c25.9,0,35.7,9.3,46,9.3c5.2,0,7.8-5.7,9.3-9.3h7.2l22.8,78.4l-7.8,2.6
		C735.2,160.6,712.4,135.8,683,135.8z"/>
	<path class="st0" d="M906.6,143.6h-54.4v152.7c0,41.5,9.8,47.1,22.8,47.1c10.9,0,19.2-9.8,25.9-24.3h8.3
		c-9.8,28.5-24.8,49.1-49.1,49.1c-25.9,0-43-15-43-56.4V143.6h-38.3v-7.8c36.8-12.5,53.3-31.6,65.8-77.2h7.8v70.9h54.4V143.6z"/>
	<path class="st0" d="M1142,353.3v7.8h-106.6v-7.8c27.4-0.5,36.8-7.2,36.8-34.6V205.8c0-44-14.5-56.9-37.8-56.9
		c-23.3,0-47.1,19.7-64.2,37.3v132.5c0,27.4,9.3,34.2,36.8,34.6v7.8H898.8v-7.8c27.4-0.5,36.2-7.2,36.2-34.6V63.3
		c0-23.3-6.7-31-19.7-31c-5.2,0-12.9,2-18.1,4.7l-3.1-7.8l68.3-27.4h7.8v170.9c28.5-32.1,52.8-50.2,81.8-50.2
		c36.2,0,55.4,22.3,55.4,74v122.2C1107.4,346,1116.1,352.7,1142,353.3z"/>
	<path class="st0" d="M1256,334.6c36.2,0,60-21.2,72.5-61.6l7.2,2.6c-8.3,49.1-40.4,92.6-89.5,92.6c-56.9,0-99.9-49.1-99.9-119.1
		c0-75,41.5-126.8,103.5-126.8c51.8,0,87,40.4,87,94.8h-160C1176.8,294.7,1212,334.6,1256,334.6z M1293.2,203.1
		c-0.5-41.5-20.1-65.8-53.8-65.8c-31,0-60,27-62.1,65.8L1293.2,203.1L1293.2,203.1z"/>
	<path class="st0" d="M1467.7,143.6h-54.4v152.7c0,41.5,9.8,47.1,22.8,47.1c10.9,0,19.2-9.8,25.9-24.3h8.3
		c-9.8,28.5-24.8,49.1-49.1,49.1c-25.9,0-43-15-43-56.4V143.6h-38.3v-7.8c36.8-12.5,53.3-31.6,65.8-77.2h7.8v70.9h54.4V143.6z"/>
	<path class="st0" d="M1452.6,129.6h55.4l17.6-7.2h8.3v196.2c0,27.4,8.8,34.2,36.2,34.6v7.8h-107.7v-7.8
		c27.4-0.5,36.2-7.2,36.2-34.6V181.9c0-31-7.2-38.3-33.1-38.3h-12.9L1452.6,129.6L1452.6,129.6z M1513.7,26.1
		c14.5,0,25.9,11.4,25.9,25.9s-11.4,25.9-25.9,25.9s-25.9-11.4-25.9-25.9S1499.2,26.1,1513.7,26.1z"/>
	<path class="st0" d="M1736.8,197.4c-12.9,0-23.3-9.3-25.4-27.4c-2-23.8-15-32.6-36.8-32.6c-41.5,0-66.3,35.7-66.3,87.5
		c0,68.3,33.7,109.8,76.6,109.8c37.8,0,60.5-26.4,73-65.2l7.2,2.6c-7.8,51.8-40.9,96.3-94.2,96.3c-54.4,0-95.7-48.2-95.7-124.3
		c0-73.5,46.6-121.6,106.6-121.6c41.5,0,76.1,25.4,76.1,51.3C1758,186.5,1749.8,197.4,1736.8,197.4z"/>
	<path class="st0" d="M1827.9,341.8c0,14.5-11.9,26.4-26.4,26.4c-14.5,0-26.4-11.9-26.4-26.4c0-14.5,11.9-26.4,26.4-26.4
		C1816,315.4,1827.9,327.4,1827.9,341.8z"/>
</g>
</svg>
